<svg width="39" height="38" viewBox="0 0 39 38" fill="none" xmlns="http://www.w3.org/2000/svg">
<path d="M29.8264 33.2771V23.0781C29.8264 22.8526 29.6868 22.6493 29.4728 22.5631C29.2587 22.477 29.0127 22.5252 28.8494 22.685C28.0339 23.4831 26.9483 23.9226 25.793 23.9226C25.4771 23.9226 25.2212 24.172 25.2212 24.4797V34.8374C25.2212 35.1452 25.4771 35.3945 25.793 35.3945C26.8613 35.3945 27.5918 35.8112 27.9643 36.6329C28.0558 36.8347 28.2609 36.9649 28.4873 36.9649H32.2169C32.3721 36.9649 32.5206 36.9035 32.6283 36.7947C32.7361 36.6859 32.7938 36.5391 32.7883 36.3879C32.7874 36.3584 32.652 33.606 29.8264 33.2771Z" fill="#6E563D"/>
<path d="M29.8264 25.0257V23.078C29.8264 22.8525 29.6868 22.6492 29.4728 22.563C29.2587 22.477 29.0127 22.5252 28.8494 22.6849C28.0339 23.483 26.9483 23.9226 25.793 23.9226C25.4771 23.9226 25.2212 24.1719 25.2212 24.4797V26.6209C27.2717 26.4993 28.8254 25.7884 29.8264 25.0257Z" fill="#604B35"/>
<path d="M19.8573 24.067C19.7634 23.8707 19.5613 23.7451 19.339 23.7451H12.2463C12.0445 23.7451 11.8576 23.8488 11.7546 24.0178C11.0517 25.1714 9.91127 26.2373 8.36503 27.1859C8.19876 27.2878 8.0979 27.4659 8.0979 27.6573V34.0855C8.0979 35.6732 9.42358 36.9649 11.053 36.9649H15.7846C15.9398 36.9649 16.0883 36.9034 16.1962 36.7946C16.3039 36.6858 16.3616 36.539 16.3561 36.3878C16.355 36.3583 16.2196 33.606 13.394 33.2771V28.74C14.5173 28.339 17.7229 27.0413 19.7767 24.6607C19.9197 24.4949 19.9512 24.2634 19.8573 24.067Z" fill="#6E563D"/>
<path d="M19.339 23.7451H12.2463C12.0446 23.7451 11.8577 23.8488 11.7547 24.0178C11.2777 24.8006 10.5987 25.5428 9.72876 26.2356H18.0844C18.6864 25.7753 19.2671 25.2514 19.7768 24.6607C19.9198 24.4949 19.9513 24.2633 19.8574 24.067C19.7634 23.8707 19.5613 23.7451 19.339 23.7451Z" fill="#604B35"/>
<path d="M38.4049 6.04738L33.8979 4.21767L32.5356 2.46134C31.3402 0.920133 29.4427 0 27.4598 0C25.4403 0 23.6305 1.17262 22.8494 2.98741L19.0371 11.8453H11.0925C9.74619 11.8453 8.44009 12.1962 7.29242 12.8631C5.91535 12.0166 4.93449 10.9239 4.3746 9.61114C2.91749 6.19387 4.62245 2.17736 4.63861 2.13999C4.9813 1.36427 4.61269 0.460772 3.81693 0.125908C3.02025 -0.209401 2.09207 0.149604 1.74847 0.924813L1.73513 0.953486C1.4404 1.58355 0.894387 2.88794 0.548881 4.54436C0.0286401 7.03846 0.17288 9.26477 0.977714 11.1614C1.7625 13.011 2.96079 14.6147 4.45938 15.8272C3.88501 16.9431 3.62504 18.1812 3.70524 19.437C3.70974 19.5086 3.71508 19.5808 3.72118 19.6532C3.88204 21.5714 2.59234 24.0742 1.43902 25.6347C0.65851 26.6908 0.245915 27.9295 0.245915 29.2172V35.1207C0.245915 36.7084 1.5716 38.0001 3.20101 38.0001H7.93258C8.08773 38.0001 8.23624 37.9386 8.34396 37.8298C8.45176 37.721 8.50947 37.5742 8.50398 37.423C8.50291 37.3935 8.36752 34.6412 5.54187 34.3123V29.7755C6.79284 29.3297 10.6153 27.7769 12.5638 24.8594H21.0686V35.1207C21.0686 36.7084 22.3943 38.0001 24.0237 38.0001H28.7553C28.9105 38.0001 29.059 37.9386 29.1667 37.8298C29.2745 37.721 29.3322 37.5742 29.3267 37.423C29.3257 37.3935 29.1903 34.6412 26.3647 34.3123V25.0079C29.106 24.7285 31.2497 22.4637 31.2497 19.7201V11.704H33.4111C34.9901 11.704 36.4736 11.0605 37.481 9.93843C38.3274 8.99542 38.7567 7.85927 38.7567 6.56164C38.7568 6.33679 38.618 6.13385 38.4049 6.04738Z" fill="#A58260"/>
<path d="M2.94946 29.7754V34.8021C5.77503 35.131 5.91051 37.3934 5.91157 37.4229C5.91706 37.574 5.85935 37.7209 5.75155 37.8297C5.64383 37.9385 5.49532 38 5.34018 38H7.92583C7.99902 38 8.07243 37.9891 8.14028 37.9626C8.37586 37.8703 8.51224 37.6516 8.50386 37.423C8.50279 37.3934 8.36739 34.6411 5.54175 34.3123V29.7754C6.79272 29.3297 10.6152 27.7769 12.5636 24.8594H10.7583C10.2886 24.8594 9.84258 25.0677 9.5544 25.4293C7.52071 27.9805 4.11642 29.3595 2.94946 29.7754Z" fill="#85684A"/>
<path d="M30.8188 11.704H29.9541C29.238 11.704 28.6574 12.2697 28.6574 12.9674V19.72C28.6574 22.1779 26.9371 24.2515 24.6079 24.8577C24.1188 24.985 23.7725 25.4075 23.7725 25.9008V34.8021C26.598 35.131 26.7334 37.3935 26.7345 37.423C26.74 37.574 26.6823 37.7209 26.5745 37.8297C26.4668 37.9385 26.3182 38 26.1631 38H28.7488C28.8219 38 28.8954 37.9891 28.9632 37.9626C29.1988 37.8704 29.3352 37.6516 29.3268 37.423C29.3257 37.3935 29.1903 34.6412 26.3648 34.3123V25.0079C29.106 24.7285 31.2497 22.4636 31.2497 19.72V11.704L31.2379 11.687C31.099 11.6971 30.9594 11.704 30.8188 11.704Z" fill="#85684A"/>
<path d="M27.8022 10.9478C27.7518 10.9478 27.7009 10.9412 27.6508 10.9279C27.5242 10.894 24.5411 10.06 23.9268 6.76762C23.8703 6.46492 24.0764 6.17492 24.387 6.11981C24.6981 6.06439 24.9954 6.26555 25.0519 6.56825C25.428 8.58375 26.9387 9.44141 27.619 9.73066C28.8734 8.03473 28.0572 5.42163 28.0483 5.39392C27.9541 5.10028 28.122 4.78778 28.4235 4.69597C28.7247 4.60408 29.0455 4.7678 29.1398 5.06151C29.1513 5.09746 29.4234 5.95691 29.456 7.07099C29.5008 8.59355 29.0739 9.87232 28.2218 10.7691C28.1121 10.8846 27.9593 10.9478 27.8022 10.9478Z" fill="#604B35"/>
<path d="M19.9675 11.681C19.8193 11.681 19.671 11.6251 19.5591 11.5136L8.9914 0.998736C8.77046 0.778935 8.7742 0.426169 8.99986 0.2109C9.22537 -0.00436983 9.58742 -0.000878554 9.80835 0.219145L20.3759 10.734C20.5969 10.9538 20.5931 11.3066 20.3675 11.5218C20.2563 11.6281 20.1119 11.681 19.9675 11.681Z" fill="#464649"/>
<path d="M30.8791 13.2851L20.6294 9.53203C20.3415 9.42662 20.0198 9.56189 19.9009 9.83807L18.89 12.1869C18.8296 12.3272 18.8307 12.4854 18.8929 12.6248C18.9552 12.7643 19.0733 12.8728 19.2198 12.9253L30.4805 16.9608C30.5446 16.9837 30.6114 16.995 30.6778 16.995C30.7933 16.995 30.9078 16.9609 31.005 16.8948C31.1583 16.7906 31.2496 16.6199 31.2496 16.4379V13.8067C31.2496 13.5745 31.102 13.3667 30.8791 13.2851Z" fill="#FFDF65"/>
<path d="M30.8792 13.2851L28.6196 12.4578V16.2938L30.4806 16.9607C30.5448 16.9837 30.6115 16.995 30.6779 16.995C30.7934 16.995 30.908 16.9609 31.0052 16.8948C31.1585 16.7906 31.2498 16.6199 31.2498 16.4379V13.8067C31.2498 13.5745 31.1021 13.3667 30.8792 13.2851Z" fill="#FFCD2C"/>
<path d="M31.0477 6.19948C30.5956 6.19948 30.2278 5.84114 30.2278 5.40058C30.2278 4.96008 30.5956 4.60175 31.0477 4.60175C31.4998 4.60175 31.8676 4.96008 31.8676 5.40058C31.8676 5.84114 31.4997 6.19948 31.0477 6.19948Z" fill="#604B35"/>
<path d="M38.4047 6.0474L36.3499 5.21313C36.0823 6.43886 37.0465 7.62055 37.7974 8.04083C37.839 8.06408 37.8833 8.08213 37.9295 8.09461C38.0702 8.13265 38.2082 8.15151 38.3422 8.15151C38.4025 8.15151 38.4618 8.14669 38.5202 8.13911C38.6771 7.64461 38.7566 7.1181 38.7566 6.56173C38.7566 6.3368 38.6178 6.13386 38.4047 6.0474Z" fill="#604B35"/>
</svg>
